<?xml version="1.0" encoding="UTF-8"?>
<!DOCTYPE svg PUBLIC "-//W3C//DTD SVG 1.1//EN" "http://www.w3.org/Graphics/SVG/1.1/DTD/svg11.dtd">
<!-- Creator: CorelDRAW 2021 (64-Bit) -->
<svg xmlns="http://www.w3.org/2000/svg" xml:space="preserve" width="50%" height="50%" version="1.1" style="shape-rendering:geometricPrecision; text-rendering:geometricPrecision; image-rendering:optimizeQuality; fill-rule:evenodd; clip-rule:evenodd"
viewBox="0 0 13250 13250"
 xmlns:xlink="http://www.w3.org/1999/xlink"
 xmlns:xodm="http://www.corel.com/coreldraw/odm/2003">
 <defs>
  <style type="text/css">
   <![CDATA[
    .fil0 {fill:#2B2B2B}
    .fil2 {fill:#4F9593}
    .fil1 {fill:#4F9593;fill-rule:nonzero}
   ]]>
  </style>
 </defs>
 <g id="Слой_x0020_1">
  <metadata id="CorelCorpID_0Corel-Layer"/>
  <rect class="fil0" x="-0.16" y="0.17" width="13250" height="13250" rx="2600" ry="2600"/>
  <path class="fil1" d="M2560.68 0.16l8128.31 0c704.54,0 1344.83,288.01 1808.83,752.01 464.01,464.01 752.01,1104.3 752.01,1808.84l0 8128.31c0,704.54 -288.01,1344.83 -752.01,1808.84 -464.01,464.01 -1104.29,752.01 -1808.83,752.01l-8128.31 0c-704.54,0 -1344.83,-288 -1808.84,-752.01 -464.01,-464.01 -752.01,-1104.3 -752.01,-1808.84l0 -8128.31c0,-704.54 288,-1344.83 752.01,-1808.84 464.01,-464.01 1104.3,-752.01 1808.84,-752.01zm8128.31 605.96l-8128.31 0c-537.28,0 -1025.95,220.01 -1380.41,574.48 -354.47,354.46 -574.48,843.12 -574.48,1380.41l0 8128.31c0,537.28 220.01,1025.95 574.48,1380.41 354.46,354.47 843.12,574.48 1380.41,574.48l8128.31 0c537.28,0 1025.94,-220.01 1380.41,-574.48 354.47,-354.46 574.48,-843.12 574.48,-1380.41l0 -8128.31c0,-537.28 -220.01,-1025.95 -574.48,-1380.41 -354.46,-354.47 -843.12,-574.48 -1380.41,-574.48z"/>
  <path class="fil1" d="M2111.95 7404.59c-43.89,0 -81.02,-15.19 -111.38,-45.55 -14.98,-14.98 -26.35,-32.03 -34.1,-51.15 -7.63,-18.82 -11.45,-38.91 -11.45,-60.23l0 -1244.99c0,-21.68 3.82,-42.07 11.45,-61.14 7.82,-19.56 19.51,-36.86 35.05,-51.88 15.05,-14.55 32.03,-25.53 50.92,-32.93 18.66,-7.32 38.5,-10.98 59.51,-10.98l367.8 0c50.59,0 98.76,5.69 144.49,17.09 46.44,11.56 89.64,28.81 129.59,51.74 39.78,22.83 75.59,50.25 107.41,82.23 31.57,31.75 58.83,67.79 81.77,108.1 22.99,40.41 40.24,84.15 51.74,131.2 11.39,46.6 17.09,95.68 17.09,147.24 0,49.54 -5.62,96.79 -16.86,141.73 -11.27,45.07 -28.29,87.57 -51.05,127.51 -22.76,39.93 -50.03,75.51 -81.79,106.74 -31.84,31.31 -67.97,58.12 -108.35,80.39 -39.97,22.06 -83.24,38.69 -129.8,49.89 -46.07,11.09 -94.15,16.63 -144.24,16.63l-210.87 0 0 341.43c0,21.32 -3.81,41.41 -11.44,60.23 -7.75,19.12 -19.12,36.18 -34.1,51.15 -14.98,14.98 -32.03,26.35 -51.15,34.1 -18.82,7.62 -38.9,11.44 -60.23,11.44zm156.93 -797.51l210.87 0c45.62,0 85.14,-9.55 118.66,-28.64 16.37,-9.28 31.14,-20.57 44.42,-33.86 13.08,-13.07 24.37,-27.93 33.86,-44.54 19.09,-33.4 28.64,-72.32 28.64,-116.7 0,-25.99 -2.43,-49.65 -7.3,-70.95 -4.76,-20.9 -11.81,-40.09 -21.14,-57.55 -9.18,-17.18 -20.32,-32.56 -33.4,-46.12 -13,-13.47 -27.77,-24.99 -44.4,-34.52 -16.78,-9.62 -34.89,-16.89 -54.43,-21.81 -19.9,-5 -41.55,-7.51 -64.92,-7.51l-210.87 0 0 462.19zm1320.17 243.97l-174.48 0.01 0 396.6c0,20.99 -3.66,40.84 -10.97,59.51 -7.4,18.9 -18.38,35.87 -32.93,50.92 -15.02,15.54 -32.33,27.23 -51.89,35.06 -19.07,7.62 -39.45,11.44 -61.14,11.44 -43.89,0 -81.01,-15.19 -111.38,-45.55 -14.98,-14.98 -26.35,-32.03 -34.1,-51.15 -7.63,-18.82 -11.45,-38.91 -11.45,-60.23l0 -1244.99c0,-21.68 3.82,-42.07 11.45,-61.14 7.82,-19.56 19.51,-36.86 35.05,-51.88 15.05,-14.55 32.03,-25.53 50.92,-32.93 18.66,-7.32 38.5,-10.98 59.51,-10.98l331.02 0c102.02,0 193.29,21.87 273.8,65.59 40.43,21.95 76.39,47.99 107.87,78.07 31.95,30.54 59.3,65.05 82.03,103.51 22.99,38.91 40.17,80.74 51.53,125.59 11.23,44.38 16.86,91.32 16.86,140.94 0,46.87 -5.7,91.53 -17.1,133.96 -11.47,42.68 -28.72,82.82 -51.78,120.4 -22.99,37.49 -50.41,70.85 -82.26,100.06 -21.31,19.54 -44.58,37.24 -69.82,53.1l246.55 396.89c34.24,55.18 38.19,108.62 11.83,160.33 -13.48,26.45 -32.51,46.63 -57.07,60.55 -23.37,13.24 -50.14,19.87 -80.29,19.87 -13.1,0 -25.93,-1.48 -38.48,-4.44 -12.44,-2.92 -24.67,-7.52 -36.67,-13.78 -12.5,-6.53 -23.81,-14.72 -33.91,-24.55 -9.9,-9.64 -18.53,-20.45 -25.86,-32.44l-296.85 -478.34zm-174.48 -299.13l174.09 0c47.14,0 87.7,-8.5 121.66,-25.48 16.2,-8.1 30.89,-18.02 44.07,-29.76 12.55,-11.18 23.43,-24.03 32.66,-38.57 9.2,-14.49 16.01,-29.6 20.4,-45.3 4.53,-16.2 6.8,-34 6.8,-53.38 0,-22.52 -2.34,-42.93 -7.04,-61.23 -4.66,-18.22 -11.71,-35.33 -21.12,-51.32 -18.74,-31.88 -44.65,-56.79 -77.68,-74.72 -16.27,-8.84 -34.32,-15.58 -54.09,-20.22 -20.06,-4.7 -41.95,-7.06 -65.65,-7.06l-174.09 0 0 407.03zm1573.57 871.07c-56.92,0 -112.24,-4.93 -165.95,-14.76 -53.54,-9.81 -104.51,-24.49 -152.88,-44.04 -48.73,-19.69 -94.02,-43.38 -135.84,-71.03 -41.94,-27.74 -80.54,-59.57 -115.79,-95.49 -35.27,-35.93 -66.49,-75.07 -93.64,-117.39 -27.15,-42.31 -50.37,-87.9 -69.65,-136.75 -19.05,-48.3 -33.43,-99.41 -43.1,-153.32 -9.69,-53.95 -14.53,-109.27 -14.53,-165.94 0,-56.69 4.85,-111.93 14.53,-165.71 9.62,-53.37 24.07,-104.34 43.35,-152.88 19.41,-48.85 42.55,-94.12 69.41,-135.82 27.18,-42.2 58.4,-81.26 93.64,-117.17 35.24,-35.92 73.85,-67.75 115.79,-95.49 41.83,-27.66 87.11,-51.34 135.84,-71.03 48.37,-19.55 99.33,-34.23 152.87,-44.03 53.71,-9.84 109.03,-14.77 165.95,-14.77 56.94,0 112.19,4.93 165.73,14.77 53.74,9.87 104.55,24.56 152.42,44.03 48.05,19.55 93.1,43.23 135.14,71.03 41.84,27.68 80.52,59.43 116.01,95.26 35.45,35.79 66.91,74.85 94.34,117.17 27.24,42.03 50.54,87.39 69.87,136.06 19.28,48.54 33.73,99.51 43.35,152.88 9.68,53.78 14.53,109.02 14.53,165.71 0,56.68 -4.85,111.99 -14.54,165.94 -9.68,53.91 -24.05,105.03 -43.1,153.32 -19.3,48.9 -42.59,94.49 -69.87,136.75 -27.4,42.43 -58.93,81.65 -94.58,117.64 -35.49,35.82 -74.17,67.58 -116.01,95.26 -42.03,27.8 -87.09,51.48 -135.14,71.03 -47.88,19.48 -98.69,34.16 -152.43,44.04 -53.53,9.84 -108.78,14.76 -165.72,14.76zm0 -295.47c71.34,0 136.53,-12.73 195.58,-38.19 30.13,-12.99 57.81,-28.17 83.02,-45.51 25.55,-17.57 49.18,-37.62 70.89,-60.14 21.68,-22.49 40.81,-46.89 57.39,-73.17 16.92,-26.82 31.19,-55.35 42.78,-85.53 11.5,-29.96 20.27,-61.93 26.3,-95.87 5.95,-33.49 8.93,-68.44 8.93,-104.86 0,-36.42 -2.98,-71.38 -8.93,-104.86 -6.03,-33.95 -14.8,-65.91 -26.3,-95.87 -11.59,-30.19 -25.86,-58.71 -42.78,-85.54 -16.57,-26.28 -35.7,-50.67 -57.39,-73.17 -21.51,-22.32 -45.07,-42.21 -70.65,-59.68 -25.89,-17.67 -53.49,-32.69 -82.78,-45.06 -29.1,-12.28 -60.06,-21.58 -92.84,-27.89 -32.47,-6.25 -66.88,-9.38 -103.22,-9.38 -36.33,0 -70.74,3.13 -103.22,9.38 -32.78,6.31 -63.73,15.61 -92.84,27.89 -29.25,12.34 -56.78,27.37 -82.56,45.06 -25.26,17.34 -48.51,37.15 -69.72,59.43 -42.88,45.05 -76.36,98.2 -100.4,159.43 -12.22,31.1 -21.3,62.98 -27.24,95.62 -5.94,32.69 -8.91,67.56 -8.91,104.62 0,37.06 2.97,71.94 8.91,104.62 5.94,32.65 15.02,64.53 27.24,95.63 24.05,61.23 57.52,114.38 100.4,159.43 21.4,22.48 44.72,42.45 69.95,59.9 25.12,17.36 52.72,32.53 82.8,45.51 29.48,12.71 60.36,22.24 92.6,28.58 32.56,6.4 66.89,9.61 102.97,9.61zm1501.23 -982.63l0 1102.77c0,43.89 -15.18,81.03 -45.6,111.32 -15.46,15.32 -32.79,26.81 -52.15,34.4 -19.05,7.47 -39.34,11.2 -61.01,11.2 -42.66,0 -79.18,-15.19 -109.48,-45.61 -15.14,-15.27 -26.55,-32.29 -34.16,-51.09 -7.62,-18.82 -11.44,-38.9 -11.44,-60.23l0 -1102.77 -335.92 0c-21.07,0 -40.77,-3.67 -59.07,-10.99 -19.23,-7.69 -35.93,-19.17 -50.07,-34.4 -26.94,-29.02 -40.43,-63.76 -40.43,-104.19 0,-43.9 13.95,-79.8 41.87,-107.7 14.02,-14.02 30.72,-24.64 50.07,-31.82 18.03,-6.7 37.24,-10.05 57.64,-10.05l983.86 0c43.89,0 79.8,13.96 107.7,41.87 14.02,14.02 24.63,30.72 31.82,50.07 6.69,18.03 10.05,37.24 10.05,57.64 0,40.43 -13.48,75.16 -40.43,104.19 -14.15,15.23 -30.84,26.7 -50.07,34.4 -18.31,7.32 -38.01,10.99 -59.07,10.99l-334.09 0zm729.47 1259.7c-43.89,0 -81.02,-15.19 -111.39,-45.55 -14.97,-14.98 -26.34,-32.03 -34.09,-51.15 -7.64,-18.82 -11.45,-38.91 -11.45,-60.23l0 -1244.99c0,-21.68 3.82,-42.07 11.45,-61.14 7.82,-19.56 19.51,-36.86 35.05,-51.88 15.05,-14.55 32.03,-25.53 50.91,-32.93 18.67,-7.32 38.51,-10.98 59.51,-10.98l831.23 0c44.53,0 81.35,14.03 110.43,42.06 15.06,14.51 26.36,31.37 33.91,50.53 7.17,18.16 10.75,37.76 10.75,58.81 0,20.61 -3.74,40 -11.23,58.17 -7.73,18.8 -19.12,35.18 -34.15,49.14 -14.76,13.71 -31.91,24 -51.43,30.86 -18.16,6.38 -37.59,9.57 -58.28,9.57l-674.3 0 0 324.27 466.49 0c20.99,0 40.66,3.35 58.99,10.04 19.53,7.12 36.69,17.8 51.43,32.03 14.95,14.41 26.18,30.86 33.68,49.34 7.32,18.05 10.98,37.43 10.98,58.16 0,20.72 -3.66,40.12 -10.98,58.16 -7.5,18.47 -18.73,34.93 -33.68,49.34 -14.75,14.22 -31.9,24.9 -51.43,32.03 -18.33,6.69 -38,10.03 -58.99,10.03l-466.49 0 0 337.15 674.3 0c44.11,0 80.69,13.48 109.7,40.43 15.03,13.95 26.42,30.34 34.15,49.14 7.49,18.17 11.23,37.56 11.23,58.17 0,21.05 -3.58,40.66 -10.75,58.82 -7.55,19.16 -18.87,36.02 -33.91,50.52 -14.75,14.22 -31.9,24.9 -51.44,32.03 -18.33,6.69 -38,10.03 -58.99,10.03l-831.23 0zm2376.59 -270.94c0,8.86 -0.94,18.51 -2.81,28.93 -1.81,10.07 -4.3,19.41 -7.46,27.99 -3.99,10.84 -9.54,21.23 -16.63,31.16 -6.7,9.38 -14.42,17.95 -23.12,25.69l-1.67 1.2c-35.5,29.48 -72.33,55.08 -110.46,76.8 -38.17,21.74 -78.23,39.9 -120.17,54.44 -41.58,14.41 -83.86,25.18 -126.84,32.29 -43.7,7.22 -87.75,10.84 -132.11,10.84 -107.31,0 -208.24,-20.45 -302.79,-61.36 -47.17,-20.4 -91.15,-44.7 -131.91,-72.87 -41.14,-28.43 -79.19,-60.8 -114.16,-97.09 -35.02,-36.35 -66.16,-75.72 -93.39,-118.06 -27.12,-42.16 -50.49,-87.52 -70.1,-136.04 -19.51,-48.31 -34.2,-98.81 -44.03,-151.49 -9.83,-52.7 -14.76,-106.65 -14.76,-161.82 0,-54.75 4.93,-108.24 14.76,-160.44 9.86,-52.32 24.55,-102.44 44.03,-150.35 19.48,-47.86 42.84,-92.9 70.1,-135.11 27.26,-42.22 58.4,-81.51 93.39,-117.84 34.76,-36.08 72.66,-68.45 113.69,-97.09 41.26,-28.81 84.93,-53.41 130.99,-73.8 93.75,-41.52 195.15,-62.28 304.19,-62.28 50.09,0 97.03,3.31 140.81,9.92 43.9,6.62 85.05,16.86 123.45,30.69 38.18,13.76 75.79,31.6 112.83,53.52 36.21,21.44 72.78,47.29 109.67,77.54 7.45,5.66 13.59,10.9 18.4,15.71 5.94,5.95 11.56,12.74 16.82,20.34 10,14.44 16.79,29.43 20.38,44.98 1.41,6.11 2.51,13.12 3.27,21 0.78,8.06 1.17,15.11 1.17,21.15 0,19.5 -3.74,38.14 -11.24,55.89 -7.43,17.64 -18.28,33.32 -32.5,47.02 -27.5,26.49 -60.83,40.74 -99.95,42.75 -20.14,1.03 -39.54,-1.77 -58.18,-8.41 -17.82,-6.35 -34.77,-16.14 -50.85,-29.38l-1.2 -0.96c-20.24,-17.51 -40.99,-33.07 -62.24,-46.68 -20.35,-13.03 -41.24,-24.16 -62.63,-33.37 -19.9,-8.57 -43.24,-15.03 -70,-19.38 -28.1,-4.57 -60.76,-6.86 -98,-6.86 -31.97,0 -62.76,3.2 -92.35,9.6 -29.81,6.44 -58.54,16.05 -86.15,28.79 -28.62,13.2 -55.23,28.69 -79.82,46.43 -24.62,17.75 -47.8,38.19 -69.53,61.3 -21.59,22.96 -40.74,47.66 -57.41,74.1 -16.98,26.91 -31.47,55.52 -43.48,85.8 -11.95,30.17 -20.96,61.52 -26.99,94.02 -5.94,32.02 -8.92,65.82 -8.92,101.39 0,36.23 2.98,70.49 8.92,102.77 6.04,32.84 15.05,64.34 26.99,94.48 24.05,60.65 57.67,113.96 100.89,159.91 21.22,22.56 44.4,42.85 69.48,60.89 24.6,17.67 51.08,32.89 79.39,45.68 27.89,12.6 56.69,22.06 86.39,28.35 29.5,6.24 60.37,9.36 92.59,9.36 55.47,0 107.36,-9.29 155.67,-27.88 17.51,-6.73 35.65,-14.86 54.42,-24.38 8.39,-4.26 16.62,-8.65 24.68,-13.19l0 -231.24 -192.48 0c-42.03,0 -78.05,-13.01 -108.03,-38.99 -16.04,-13.9 -28.21,-29.97 -36.49,-48.2 -8.26,-18.18 -12.41,-37.76 -12.41,-58.7 0,-43.02 16.31,-78.66 48.9,-106.9 15.02,-13.02 31.92,-22.84 50.67,-29.43 18.15,-6.38 37.27,-9.57 57.36,-9.57l343.89 0c21.61,0 41.76,3.66 60.43,10.98 19.59,7.68 36.81,19.22 51.67,34.6 14.35,14.86 25.17,32.07 32.48,51.65 7.01,18.75 10.51,38.66 10.51,59.69l0 439.52zm907.85 289.34c-56.92,0 -112.25,-4.93 -165.95,-14.76 -53.54,-9.81 -104.5,-24.49 -152.88,-44.04 -48.73,-19.69 -94.01,-43.38 -135.84,-71.03 -41.94,-27.74 -80.54,-59.57 -115.78,-95.49 -35.26,-35.93 -66.49,-75.07 -93.65,-117.39 -27.15,-42.31 -50.37,-87.9 -69.64,-136.75 -19.06,-48.3 -33.43,-99.41 -43.11,-153.32 -9.68,-53.95 -14.53,-109.27 -14.53,-165.94 0,-56.69 4.85,-111.93 14.53,-165.71 9.61,-53.37 24.07,-104.34 43.35,-152.88 19.41,-48.85 42.55,-94.12 69.41,-135.82 27.18,-42.2 58.41,-81.26 93.65,-117.17 35.25,-35.92 73.85,-67.75 115.79,-95.49 41.83,-27.66 87.11,-51.34 135.84,-71.03 48.36,-19.55 99.33,-34.23 152.87,-44.03 53.7,-9.84 109.03,-14.77 165.95,-14.77 56.94,0 112.18,4.93 165.73,14.77 53.73,9.87 104.54,24.56 152.42,44.03 48.05,19.55 93.1,43.23 135.14,71.03 41.84,27.68 80.52,59.43 116.01,95.26 35.46,35.79 66.91,74.85 94.34,117.17 27.24,42.04 50.54,87.39 69.87,136.06 19.28,48.54 33.73,99.51 43.35,152.88 9.68,53.78 14.53,109.02 14.53,165.71 0,56.68 -4.85,111.99 -14.53,165.94 -9.67,53.91 -24.06,105.03 -43.11,153.32 -19.29,48.9 -42.58,94.49 -69.87,136.75 -27.4,42.43 -58.92,81.65 -94.58,117.64 -35.49,35.82 -74.17,67.58 -116,95.26 -42.04,27.8 -87.09,51.48 -135.14,71.03 -47.88,19.48 -98.69,34.16 -152.42,44.04 -53.54,9.84 -108.78,14.76 -165.72,14.76zm0 -295.47c71.34,0 136.53,-12.73 195.57,-38.19 30.13,-12.99 57.82,-28.17 83.02,-45.51 25.56,-17.57 49.19,-37.62 70.89,-60.14 21.68,-22.49 40.82,-46.89 57.39,-73.17 16.92,-26.82 31.19,-55.35 42.78,-85.53 11.5,-29.96 20.27,-61.93 26.31,-95.87 5.95,-33.49 8.92,-68.44 8.92,-104.86 0,-36.42 -2.97,-71.38 -8.92,-104.86 -6.03,-33.95 -14.81,-65.91 -26.31,-95.87 -11.59,-30.19 -25.85,-58.71 -42.78,-85.54 -16.57,-26.28 -35.71,-50.67 -57.39,-73.17 -21.5,-22.32 -45.06,-42.21 -70.65,-59.68 -25.89,-17.67 -53.49,-32.69 -82.78,-45.06 -29.11,-12.28 -60.06,-21.58 -92.84,-27.89 -32.47,-6.25 -66.88,-9.38 -103.21,-9.38 -36.34,0 -70.75,3.13 -103.22,9.38 -32.78,6.31 -63.74,15.61 -92.84,27.89 -29.25,12.35 -56.77,27.37 -82.55,45.06 -25.27,17.34 -48.51,37.15 -69.72,59.43 -42.88,45.05 -76.35,98.2 -100.41,159.43 -12.22,31.1 -21.3,62.98 -27.23,95.62 -5.94,32.69 -8.92,67.56 -8.92,104.62 0,37.06 2.98,71.94 8.92,104.62 5.93,32.65 15.01,64.53 27.23,95.63 24.05,61.23 57.53,114.38 100.41,159.43 21.4,22.48 44.73,42.45 69.96,59.9 25.11,17.36 52.71,32.53 82.79,45.51 29.48,12.71 60.35,22.24 92.6,28.58 32.56,6.4 66.89,9.61 102.98,9.61z"/>
  <path class="fil2" d="M2697.95 4927.05l7853.77 0c933.97,0 1698.12,764.15 1698.12,1698.11l0 0c0,933.96 -764.15,1698.11 -1698.12,1698.11l-7853.77 0c-933.97,0 -1698.12,-764.15 -1698.12,-1698.11l0 0c0,-933.96 764.15,-1698.11 1698.12,-1698.11zm-0.01 424.53l7853.78 0c700.47,0 1273.58,573.11 1273.58,1273.58l0 0.01c0,700.47 -573.11,1273.58 -1273.58,1273.58l-7853.78 0c-700.47,0 -1273.58,-573.11 -1273.58,-1273.58l0 -0.01c0,-700.47 573.11,-1273.58 1273.58,-1273.58z"/>
 </g>
</svg>
